<svg width="60" height="60" viewBox="0 0 60 60" fill="none" xmlns="http://www.w3.org/2000/svg">
<g clip-path="url(#clip0)">
<rect width="60" height="60" fill="none"/>
<ellipse cx="30" cy="30" rx="30" ry="30" transform="rotate(90 30 30)" fill="#64FFDA"/>
<path d="M26.9339 24.117C26.9339 24.8962 27.44 25.5391 28.4522 26.0456C29.5033 26.5131 30.7685 26.9417 32.2478 27.3313C33.7271 27.6819 35.2064 28.1495 36.6858 28.7339C38.1651 29.2793 39.4108 30.2144 40.423 31.5391C41.4741 32.8638 41.9996 34.5196 41.9996 36.5066C41.9996 39.5066 40.8707 41.8248 38.6128 43.4612C36.3938 45.0586 33.6103 45.8573 30.2624 45.8573C24.2673 45.8573 20.1797 43.5391 17.9996 38.9027L24.5398 35.2209C25.3962 37.7534 27.3038 39.0196 30.2624 39.0196C32.9485 39.0196 34.2916 38.1819 34.2916 36.5066C34.2916 35.7274 33.7661 35.104 32.715 34.6365C31.7028 34.13 30.4571 33.6819 28.9777 33.2923C27.4984 32.9027 26.0191 32.4157 24.5398 31.8313C23.0605 31.2469 21.7953 30.3313 20.7442 29.0845C19.732 27.7988 19.2259 26.2014 19.2259 24.2923C19.2259 21.4092 20.277 19.1495 22.3792 17.5131C24.5203 15.8378 27.1675 15.0001 30.3208 15.0001C32.6955 15.0001 34.8561 15.5456 36.8026 16.6365C38.749 17.6884 40.2867 19.2079 41.4157 21.1949L34.9923 24.7014C34.058 22.7144 32.5009 21.7209 30.3208 21.7209C29.3476 21.7209 28.53 21.9352 27.8682 22.3638C27.2454 22.7923 26.9339 23.3767 26.9339 24.117Z" fill="#3B3B3B"/>
</g>
<defs>
<clipPath id="clip0">
<rect width="60" height="60" fill="none"/>
</clipPath>
</defs>
</svg>
