<svg width="64" height="46" viewBox="0 0 64 46" fill="none" xmlns="http://www.w3.org/2000/svg">
  <path d="M8.084 20.336C6.708 20.336 5.38 20.168 4.1 19.832C2.836 19.48 1.804 19.032 1.004 18.488L2.564 14.984C3.316 15.464 4.18 15.864 5.156 16.184C6.148 16.488 7.132 16.64 8.108 16.64C8.764 16.64 9.292 16.584 9.692 16.472C10.092 16.344 10.38 16.184 10.556 15.992C10.748 15.784 10.844 15.544 10.844 15.272C10.844 14.888 10.668 14.584 10.316 14.36C9.964 14.136 9.508 13.952 8.948 13.808C8.388 13.664 7.764 13.52 7.076 13.376C6.404 13.232 5.724 13.048 5.036 12.824C4.364 12.6 3.748 12.312 3.188 11.96C2.628 11.592 2.172 11.12 1.82 10.544C1.468 9.952 1.292 9.208 1.292 8.312C1.292 7.304 1.564 6.392 2.108 5.576C2.668 4.76 3.5 4.104 4.604 3.608C5.708 3.112 7.084 2.864 8.732 2.864C9.836 2.864 10.916 2.992 11.972 3.248C13.044 3.488 13.996 3.848 14.828 4.328L13.364 7.856C12.564 7.424 11.772 7.104 10.988 6.896C10.204 6.672 9.444 6.56 8.708 6.56C8.052 6.56 7.524 6.632 7.124 6.776C6.724 6.904 6.436 7.08 6.26 7.304C6.084 7.528 5.996 7.784 5.996 8.072C5.996 8.44 6.164 8.736 6.5 8.96C6.852 9.168 7.308 9.344 7.868 9.488C8.444 9.616 9.068 9.752 9.74 9.896C10.428 10.04 11.108 10.224 11.78 10.448C12.468 10.656 13.092 10.944 13.652 11.312C14.212 11.664 14.66 12.136 14.996 12.728C15.348 13.304 15.524 14.032 15.524 14.912C15.524 15.888 15.244 16.792 14.684 17.624C14.14 18.44 13.316 19.096 12.212 19.592C11.124 20.088 9.748 20.336 8.084 20.336ZM17.3591 20V3.2H25.0391C26.5751 3.2 27.8951 3.448 28.9991 3.944C30.1191 4.44 30.9831 5.16 31.5911 6.104C32.1991 7.032 32.5031 8.136 32.5031 9.416C32.5031 10.68 32.1991 11.776 31.5911 12.704C30.9831 13.632 30.1191 14.352 28.9991 14.864C27.8951 15.36 26.5751 15.608 25.0391 15.608H19.9991L22.1111 13.544V20H17.3591ZM22.1111 14.048L19.9991 11.864H24.7511C25.7431 11.864 26.4791 11.648 26.9591 11.216C27.4551 10.784 27.7031 10.184 27.7031 9.416C27.7031 8.632 27.4551 8.024 26.9591 7.592C26.4791 7.16 25.7431 6.944 24.7511 6.944H19.9991L22.1111 4.76V14.048ZM1.964 43V25.192H6.524V43H1.964ZM17.0714 43V40.576L16.7594 39.976V35.512C16.7594 34.792 16.5354 34.24 16.0874 33.856C15.6554 33.456 14.9594 33.256 13.9994 33.256C13.3754 33.256 12.7434 33.36 12.1034 33.568C11.4634 33.76 10.9194 34.032 10.4714 34.384L8.93544 31.288C9.67144 30.808 10.5514 30.44 11.5754 30.184C12.6154 29.912 13.6474 29.776 14.6714 29.776C16.7834 29.776 18.4154 30.264 19.5674 31.24C20.7354 32.2 21.3194 33.712 21.3194 35.776V43H17.0714ZM13.2314 43.216C12.1914 43.216 11.3114 43.04 10.5914 42.688C9.87144 42.336 9.31944 41.856 8.93544 41.248C8.56744 40.64 8.38344 39.96 8.38344 39.208C8.38344 38.408 8.58344 37.72 8.98344 37.144C9.39944 36.552 10.0314 36.104 10.8794 35.8C11.7274 35.48 12.8234 35.32 14.1674 35.32H17.2394V37.696H14.7914C14.0554 37.696 13.5354 37.816 13.2314 38.056C12.9434 38.296 12.7994 38.616 12.7994 39.016C12.7994 39.416 12.9514 39.736 13.2554 39.976C13.5594 40.216 13.9754 40.336 14.5034 40.336C14.9994 40.336 15.4474 40.216 15.8474 39.976C16.2634 39.72 16.5674 39.336 16.7594 38.824L17.3834 40.504C17.1434 41.4 16.6714 42.08 15.9674 42.544C15.2794 42.992 14.3674 43.216 13.2314 43.216ZM32.0218 43.216C30.8538 43.216 29.8778 42.976 29.0938 42.496C28.3258 42.016 27.7498 41.28 27.3658 40.288C26.9818 39.296 26.7898 38.024 26.7898 36.472C26.7898 34.952 26.9898 33.696 27.3898 32.704C27.8058 31.712 28.4058 30.976 29.1898 30.496C29.9738 30.016 30.9178 29.776 32.0218 29.776C33.2058 29.776 34.2778 30.048 35.2378 30.592C36.2138 31.136 36.9818 31.912 37.5418 32.92C38.1178 33.912 38.4058 35.096 38.4058 36.472C38.4058 37.864 38.1178 39.064 37.5418 40.072C36.9818 41.064 36.2138 41.84 35.2378 42.4C34.2778 42.944 33.2058 43.216 32.0218 43.216ZM23.8378 43V25.192H28.3978V32.176L28.1578 36.472L28.1818 40.768V43H23.8378ZM31.0618 39.592C31.5738 39.592 32.0298 39.472 32.4298 39.232C32.8458 38.992 33.1738 38.64 33.4138 38.176C33.6698 37.696 33.7978 37.128 33.7978 36.472C33.7978 35.816 33.6698 35.264 33.4138 34.816C33.1738 34.352 32.8458 34 32.4298 33.76C32.0298 33.52 31.5738 33.4 31.0618 33.4C30.5498 33.4 30.0858 33.52 29.6698 33.76C29.2698 34 28.9418 34.352 28.6858 34.816C28.4458 35.264 28.3258 35.816 28.3258 36.472C28.3258 37.128 28.4458 37.696 28.6858 38.176C28.9418 38.64 29.2698 38.992 29.6698 39.232C30.0858 39.472 30.5498 39.592 31.0618 39.592ZM44.8932 43.216C43.7892 43.216 42.7092 43.088 41.6532 42.832C40.6132 42.576 39.7732 42.256 39.1332 41.872L40.5012 38.752C41.1092 39.12 41.8212 39.416 42.6372 39.64C43.4532 39.848 44.2532 39.952 45.0372 39.952C45.8052 39.952 46.3332 39.872 46.6212 39.712C46.9252 39.552 47.0772 39.336 47.0772 39.064C47.0772 38.808 46.9332 38.624 46.6452 38.512C46.3732 38.384 46.0052 38.288 45.5412 38.224C45.0932 38.16 44.5972 38.088 44.0532 38.008C43.5092 37.928 42.9572 37.824 42.3972 37.696C41.8532 37.552 41.3492 37.344 40.8852 37.072C40.4372 36.784 40.0772 36.4 39.8052 35.92C39.5332 35.44 39.3972 34.832 39.3972 34.096C39.3972 33.264 39.6372 32.528 40.1172 31.888C40.6132 31.232 41.3332 30.72 42.2772 30.352C43.2212 29.968 44.3732 29.776 45.7332 29.776C46.6452 29.776 47.5652 29.872 48.4932 30.064C49.4372 30.24 50.2292 30.512 50.8692 30.88L49.5012 33.976C48.8612 33.608 48.2212 33.36 47.5812 33.232C46.9412 33.088 46.3332 33.016 45.7572 33.016C44.9892 33.016 44.4452 33.104 44.1252 33.28C43.8212 33.456 43.6692 33.672 43.6692 33.928C43.6692 34.184 43.8052 34.384 44.0772 34.528C44.3492 34.656 44.7092 34.76 45.1572 34.84C45.6212 34.904 46.1252 34.976 46.6692 35.056C47.2132 35.12 47.7572 35.224 48.3012 35.368C48.8612 35.512 49.3652 35.728 49.8132 36.016C50.2772 36.288 50.6452 36.664 50.9172 37.144C51.1892 37.608 51.3252 38.208 51.3252 38.944C51.3252 39.744 51.0772 40.464 50.5812 41.104C50.1012 41.744 49.3812 42.256 48.4212 42.64C47.4772 43.024 46.3012 43.216 44.8932 43.216ZM51.4663 45.496V43H63.4663V45.496H51.4663Z" fill="#343434"/>
</svg>


